<svg width="248" height="68" viewBox="0 0 248 68" fill="none" xmlns="http://www.w3.org/2000/svg" role="img" aria-labelledby="title desc">
  <title id="title">Beautiful Melody logo</title>
  <desc id="desc">A joyful bouncing musical note logo for Beautiful Melody.</desc>
  <g transform="translate(2 4)">
    <rect x="0.8" y="0.8" width="58.4" height="58.4" rx="29.2" fill="#FBF8F5" stroke="#E8C7B7" stroke-width="1.6"/>
    <path d="M17.2 41.2C22.4 46.8 36.1 47.4 42.7 39.9" stroke="#9B6A5F" stroke-width="2.1" stroke-linecap="round"/>
    <path d="M32.8 13.8V34.8" stroke="#1D3D5C" stroke-width="2.8" stroke-linecap="round"/>
    <path d="M32.8 13.8C37.8 15.1 41.7 18 44.1 21.6C41 22.3 37.2 21.8 32.8 19.7V13.8Z" fill="#E8C7B7" stroke="#9B6A5F" stroke-width="1.2" stroke-linejoin="round"/>
    <ellipse cx="26.2" cy="36.5" rx="7.2" ry="5.4" transform="rotate(-20 26.2 36.5)" fill="#1D3D5C"/>
    <path d="M20.4 17.4C17.5 20.1 16.1 23.8 16.8 27.6" stroke="#E8C7B7" stroke-width="1.55" stroke-linecap="round"/>
    <path d="M47.3 31.3C49.9 34 50.7 37.6 49.5 40.9" stroke="#E8C7B7" stroke-width="1.55" stroke-linecap="round"/>
    <circle cx="21.2" cy="18.1" r="1.8" fill="#9B6A5F"/>
    <circle cx="46.8" cy="31.2" r="1.35" fill="#1D3D5C"/>
  </g>
  <g transform="translate(76 15)">
    <text x="0" y="19" fill="#1D3D5C" font-family="Inter, Arial, sans-serif" font-size="20" font-weight="700" letter-spacing="-0.9">Beautiful Melody</text>
    <path d="M1 28.5H148" stroke="#E8C7B7" stroke-width="1"/>
    <text x="1" y="44" fill="#9B6A5F" font-family="Inter, Arial, sans-serif" font-size="8.8" font-weight="700" letter-spacing="2.4">MEDICAL AESTHETICS MANUFACTURER</text>
  </g>
</svg>
