<svg width="248" height="68" viewBox="0 0 248 68" fill="none" xmlns="http://www.w3.org/2000/svg" role="img" aria-labelledby="title desc">
  <title id="title">Beautiful Melody logo</title>
  <desc id="desc">Minimal sketch-style female facial contour logo for Beautiful Melody.</desc>
  <g transform="translate(2 4)">
    <rect x="0.8" y="0.8" width="58.4" height="58.4" rx="29.2" fill="#FBF8F5" stroke="#E8C7B7" stroke-width="1.6"/>
    <path d="M35.8 9.8C28.4 10.8 22.3 15.6 19.9 22.3C17.4 29.3 19.5 36.1 25.3 40.2C28.4 42.4 30.7 44.6 31.6 48.9" stroke="#1D3D5C" stroke-width="2" stroke-linecap="round"/>
    <path d="M36.3 13.2C40.6 15.7 43 19.8 42.8 24.2C42.5 30.1 38.5 34.4 33.1 37.2C30 38.8 27.9 41.1 27.5 44.8" stroke="#9B6A5F" stroke-width="1.35" stroke-linecap="round"/>
    <path d="M37.5 21.2C34.3 22.4 32.6 25 32.7 28.1C32.8 31.1 35 33.2 38.2 33.6" stroke="#1D3D5C" stroke-width="1.35" stroke-linecap="round"/>
    <path d="M40.7 28.5C43.3 29.1 45.3 30.8 46.2 33.1" stroke="#9B6A5F" stroke-width="1.25" stroke-linecap="round"/>
    <path d="M24.6 20.4C23.2 24.1 22.9 29.2 25.8 33.5" stroke="#E8C7B7" stroke-width="1.15" stroke-linecap="round"/>
    <circle cx="37.7" cy="25.7" r="1.15" fill="#1D3D5C"/>
  </g>
  <g transform="translate(76 15)">
    <text x="0" y="19" fill="#1D3D5C" font-family="Inter, Arial, sans-serif" font-size="20" font-weight="700" letter-spacing="-0.9">Beautiful Melody</text>
    <path d="M1 28.5H148" stroke="#E8C7B7" stroke-width="1"/>
    <text x="1" y="44" fill="#9B6A5F" font-family="Inter, Arial, sans-serif" font-size="8.8" font-weight="700" letter-spacing="2.4">MEDICAL AESTHETICS MANUFACTURER</text>
  </g>
</svg>
